<svg width="55" height="54" viewBox="0 0 55 54" fill="none" xmlns="http://www.w3.org/2000/svg">
<path fill-rule="evenodd" clip-rule="evenodd" d="M54.3666 27.146C54.3666 41.8052 42.2597 53.6888 27.3251 53.6888C12.3906 53.6888 0.283691 41.8052 0.283691 27.146C0.283691 12.4869 12.3906 0.603271 27.3251 0.603271C42.2597 0.603271 54.3666 12.4869 54.3666 27.146ZM52.2033 27.146C52.2033 40.6324 41.0649 51.5654 27.3251 51.5654C13.5853 51.5654 2.44701 40.6324 2.44701 27.146C2.44701 13.6596 13.5853 2.72669 27.3251 2.72669C41.0649 2.72669 52.2033 13.6596 52.2033 27.146ZM22.9985 21.8375V22.8992H25.1618L25.1618 39.8865H22.9985V40.9483H25.1618H29.4885H31.6518V39.8865H29.4885V21.8375H25.1618H22.9985ZM30.5701 16.5289C30.5701 18.288 29.1173 19.7141 27.3251 19.7141C25.533 19.7141 24.0802 18.288 24.0802 16.5289C24.0802 14.7698 25.533 13.3438 27.3251 13.3438C29.1173 13.3438 30.5701 14.7698 30.5701 16.5289Z" fill="#2B4074"/>
</svg>
