<svg width="54" height="54" viewBox="0 0 54 54" fill="none" xmlns="http://www.w3.org/2000/svg">
<path fill-rule="evenodd" clip-rule="evenodd" d="M36.1174 6.11644C43.4961 13.4951 44.0383 25.1602 37.8158 33.4035L53.9362 49.5239L50.112 53.3481L34.0438 37.28C25.7792 43.8846 13.8079 43.465 6.28839 35.9455C-1.79677 27.8603 -1.67363 14.6286 6.56344 6.39149C14.8005 -1.84558 28.0323 -1.96872 36.1174 6.11644ZM34.5877 7.64613C41.8437 14.902 41.7331 26.7767 34.3409 34.169C26.9487 41.5612 15.074 41.6717 7.81808 34.4158C0.562169 27.1599 0.672684 15.2852 8.06492 7.89297C15.4572 0.500731 27.3318 0.390217 34.5877 7.64613Z" fill="#2B4074"/>
</svg>
