<svg width="25" height="21" viewBox="0 0 25 21" fill="none" xmlns="http://www.w3.org/2000/svg">
<path d="M19.2455 10.6562C19.2455 10.0134 19.1786 9.51786 19.0848 9.02232H9.81696V12.3973H15.3884C15.1607 13.8304 13.7009 16.6295 9.81696 16.6295C6.46875 16.6295 3.73661 13.8571 3.73661 10.4286C3.73661 7 6.46875 4.22768 9.81696 4.22768C11.7321 4.22768 13.0045 5.04464 13.7277 5.74107L16.3929 3.18303C14.6786 1.57589 12.4688 0.611606 9.81696 0.611606C4.39286 0.611606 0 5.00446 0 10.4286C0 15.8527 4.39286 20.2455 9.81696 20.2455C15.4821 20.2455 19.2455 16.2679 19.2455 10.6562ZM30.8571 9.02232H28.058V6.22321H25.2455V9.02232H22.4464V11.8348H25.2455V14.6339H28.058V11.8348H30.8571V9.02232Z" fill="white"/>
</svg>
