<svg width="22" height="17" viewBox="0 0 22 17" fill="none" xmlns="http://www.w3.org/2000/svg">
<path d="M21.3712 10.4286C21.3712 4.75 16.7641 0.142856 11.0855 0.142856C5.40695 0.142856 0.799805 4.75 0.799805 10.4286C0.799805 14.6473 3.33105 18.2634 6.96052 19.8571C6.93373 19.1339 6.94713 18.2634 7.13463 17.4866C7.13463 17.4866 7.33552 16.6562 8.46052 11.8884C8.1257 11.2321 8.1257 10.2545 8.1257 10.2545C8.1257 8.72768 9.00963 7.58928 10.1078 7.58928C11.0453 7.58928 11.5007 8.29911 11.5007 9.14286C11.5007 10.0804 10.898 11.4866 10.59 12.7857C10.3355 13.8839 11.1391 14.7679 12.2105 14.7679C14.1659 14.7679 15.4784 12.2634 15.4784 9.30357C15.4784 7.04018 13.9516 5.35268 11.1927 5.35268C8.07213 5.35268 6.13016 7.68303 6.13016 10.2812C6.13016 11.1786 6.39802 11.808 6.8132 12.3036C7.0007 12.5312 7.02748 12.6116 6.96052 12.8795C6.90695 13.067 6.7998 13.5223 6.74623 13.6964C6.67927 13.9643 6.46498 14.058 6.23731 13.9643C4.80427 13.375 4.13463 11.7946 4.13463 10.0268C4.13463 7.10714 6.59891 3.59821 11.4739 3.59821C15.4114 3.59821 17.9962 6.45089 17.9962 9.49107C17.9962 13.5357 15.7462 16.5491 12.4382 16.5491C11.3266 16.5491 10.2819 15.9464 9.93373 15.2634C9.33106 17.6339 9.21052 18.0893 9.21052 18.0893C8.99623 18.8795 8.55427 19.6696 8.16588 20.2857C9.10338 20.567 10.0677 20.7143 11.0855 20.7143C16.7641 20.7143 21.3712 16.1071 21.3712 10.4286Z" fill="white"/>
</svg>
